<?xml version="1.0" encoding="utf-8"?>
<!-- Generator: Adobe Illustrator 24.0.2, SVG Export Plug-In . SVG Version: 6.00 Build 0)  -->
<svg version="1.1" id="レイヤー_1" focusable="false"
	 xmlns="http://www.w3.org/2000/svg" xmlns:xlink="http://www.w3.org/1999/xlink" x="0px" y="0px" viewBox="0 0 448 512"
	 style="enable-background:new 0 0 448 512;" xml:space="preserve">
<g>
</g>
<path d="M400,32H48C21.5,32,0,53.5,0,80v352c0,26.5,21.5,48,48,48h352c26.5,0,48-21.5,48-48V80C448,53.5,426.5,32,400,32z
	 M342,377.8c-9.1-0.5-18.2,0-27.4-0.2c-2.6,0-4.2,0.7-5.5,3c-4.3,7.2-8.8,14.2-13.2,21.3c-4.5,7.3-9.1,7.3-13.6,0.2
	c-4.3-6.9-8.8-13.8-12.9-20.9c-1.5-2.5-3.1-3.6-6.1-3.6c-27.1,0.1-54.1,0.1-81.2,0c-2.8,0-4.4,0.8-5.9,3.2
	c-4.5,7.4-9.2,14.7-13.8,22c-4,6.2-8.7,6.2-12.6,0c-4.5-7.2-9.1-14.4-13.4-21.7c-1.5-2.5-3.1-3.6-6.2-3.5c-8.7,0.2-17.3,0.2-26,0
	c-14.9-0.2-25.8-11.1-25.9-26c-0.1-50.7-0.1-101.4,0-152.1c0-14.9,11.1-25.9,26-25.9c30.1-0.1,60.2,0,90.3-0.7h5.4
	c-18.6-18.2-36.8-36.7-55-55.1c4.6-4.5,9-8.8,13.6-13.2c21.2,21.4,42.6,43.1,64.4,65.2c22.4-22.9,43.8-44.8,65.1-66.5
	c5.6,5.8,10,10.2,14.2,14.5c-17.8,17.9-36.1,36.3-54.4,54.7c0.1,0.4,0.3,0.9,0.4,1.4h5.1c29.2-0.1,58.4-0.1,87.6-0.1
	c18.9,0,29.1,10.1,29.1,28.9c0,48.9-0.3,97.7,0.2,146.6C370.6,365.6,358.8,378.8,342,377.8z"/>
</svg>
